<?xml version="1.0" encoding="utf-8"?>
<!-- Generator: Adobe Illustrator 27.0.0, SVG Export Plug-In . SVG Version: 6.00 Build 0)  -->
<svg version="1.1" id="Layer_1" xmlns="http://www.w3.org/2000/svg" xmlns:xlink="http://www.w3.org/1999/xlink" x="0px" y="0px"
	 viewBox="0 0 1074.8 859.7" style="enable-background:new 0 0 1074.8 859.7;" xml:space="preserve">
<style type="text/css">
	.st0{stroke:#000000;stroke-miterlimit:10;}
</style>
<g>
	<g>
		<rect x="82.2" width="18.7" height="98.6"/>
		<rect x="82.2" y="138.2" width="18.7" height="427.8"/>
	</g>
	<g>
		<rect x="379.5" width="18.7" height="242.2"/>
		<rect x="379.5" y="266.9" width="18.7" height="299"/>
	</g>
	<g>
		<rect x="676.7" width="18.7" height="439.2"/>
		<rect x="676.7" y="463.9" width="18.7" height="102"/>
	</g>
	<g>
		<rect x="973.9" width="18.7" height="82"/>
		<rect x="973.9" y="106.7" width="18.7" height="459.2"/>
	</g>
	<rect y="94.8" width="183.1" height="18.7"/>
	<rect y="138.2" width="183.1" height="18.7"/>
	<rect x="297.2" y="223.5" width="183.1" height="18.7"/>
	<rect x="297.2" y="266.9" width="183.1" height="18.7"/>
	<rect x="594.5" y="420.6" width="183.1" height="18.7"/>
	<rect x="594.5" y="463.9" width="183.1" height="18.7"/>
	<rect x="891.7" y="63.3" width="183.1" height="18.7"/>
	<rect x="891.7" y="106.7" width="183.1" height="18.7"/>
	<path class="st0" d="M9.7,763l82.9-147.4L175.3,763h-15.1L92.6,642.3L24.8,763L9.7,763L9.7,763z"/>
	<path class="st0" d="M455.7,689.3v-73.7H468v73.7c0,20.4-7.2,37.8-21.5,52.1s-31.8,21.5-52.1,21.5s-37.8-7.2-52.1-21.5
		c-14.4-14.4-21.5-31.8-21.5-52.1v-73.7H333v73.7c0,11,2.7,21.3,8.2,30.8c5.5,9.5,12.9,16.9,22.4,22.4c9.5,5.5,19.7,8.2,30.8,8.2
		s21.3-2.7,30.8-8.2c9.5-5.5,16.9-12.9,22.4-22.4S455.7,700.3,455.7,689.3L455.7,689.3z"/>
	<path class="st0" d="M741.7,689.3c5.6-3.6,10.2-8.3,13.5-14.3c3.4-6,5.1-12.4,5.1-19.4c0-11.1-3.9-20.5-11.7-28.3
		c-7.8-7.8-17.2-11.7-28.3-11.7H612.9v147.4h12.3v-135h95c7.6,0,14.1,2.7,19.5,8.1c5.4,5.4,8.1,11.9,8.1,19.5s-2.7,14.1-8.1,19.4
		c-5.4,5.3-11.9,8-19.5,8h-28.9v12.5h28.9c7.6,0,14.1,2.7,19.5,8c5.4,5.3,8.1,11.8,8.1,19.4v40h12.3v-40c0-7-1.7-13.5-5.1-19.4
		C751.8,697.6,747.3,692.8,741.7,689.3L741.7,689.3z"/>
	<path class="st0" d="M900.5,763l82.9-147.4l82.7,147.4H1051l-67.6-120.7L915.6,763L900.5,763L900.5,763z"/>
	<circle class="st0" cx="91.6" cy="710.3" r="8.4"/>
	<circle class="st0" cx="983.5" cy="710.5" r="8.4"/>
</g>
<g>
	<path d="M63.4,810.6c4.2,0,7.8,1.5,10.8,4.5c3,3,4.5,6.6,4.5,10.8v33.7h-4.1V826c0-3.1-1.1-5.7-3.3-7.9c-2.2-2.2-4.8-3.3-7.9-3.3
		s-5.8,1.1-7.9,3.3s-3.3,4.8-3.3,7.9v33.7H48V826c0-3.1-1.1-5.7-3.3-7.9c-2.2-2.2-4.8-3.3-7.9-3.3s-5.8,1.1-7.9,3.3
		s-3.3,4.8-3.3,7.9v33.7h-4.1V826c0-4.2,1.5-7.8,4.5-10.8s6.6-4.5,10.8-4.5c2.8,0,5.4,0.7,7.8,2.1s4.2,3.3,5.5,5.6
		c1.3-2.4,3.2-4.2,5.5-5.6S60.6,810.6,63.4,810.6L63.4,810.6z"/>
	<path d="M148.2,835.2v-24.5h4.1v24.5c0,6.8-2.4,12.6-7.2,17.3c-4.8,4.8-10.6,7.2-17.3,7.2s-12.6-2.4-17.3-7.2
		c-4.8-4.8-7.2-10.6-7.2-17.3v-24.5h4.1v24.5c0,3.7,0.9,7.1,2.7,10.2c1.8,3.2,4.3,5.6,7.4,7.5c3.2,1.8,6.6,2.7,10.2,2.7
		c3.7,0,7.1-0.9,10.2-2.7c3.1-1.8,5.6-4.3,7.4-7.5C147.3,842.2,148.2,838.8,148.2,835.2L148.2,835.2z"/>
	<path d="M190.1,810.6h35.7v4.1h-35.7c-2.5,0-4.7,0.9-6.5,2.7s-2.7,4-2.7,6.5s0.9,4.7,2.7,6.5c1.8,1.8,4,2.7,6.5,2.7h22.4
		c3.7,0,6.8,1.3,9.4,3.9c2.6,2.6,3.9,5.7,3.9,9.4s-1.3,6.8-3.9,9.4c-2.6,2.6-5.7,3.9-9.4,3.9h-35.7v-4.1h35.7c2.5,0,4.7-0.9,6.5-2.7
		s2.7-4,2.7-6.5s-0.9-4.7-2.7-6.5c-1.8-1.8-4-2.7-6.5-2.7h-22.4c-3.7,0-6.8-1.3-9.4-3.9s-3.9-5.7-3.9-9.4s1.3-6.8,3.9-9.4
		C183.3,811.9,186.4,810.6,190.1,810.6z"/>
	<path d="M262.7,814.8h-4.1v40.8h4.1v4.1h-12.3v-4.1h4.1v-40.8h-4.1v-4.1h12.3V814.8z"/>
	<path d="M294.4,852.5c-4.8-4.8-7.2-10.6-7.2-17.3s2.4-12.6,7.2-17.3c4.8-4.8,10.6-7.2,17.4-7.2h24.5v4.1h-24.5
		c-3.7,0-7.1,0.9-10.2,2.7s-5.6,4.3-7.5,7.5s-2.7,6.6-2.7,10.2s0.9,7.1,2.7,10.2c1.8,3.2,4.3,5.6,7.5,7.5c3.1,1.8,6.6,2.7,10.2,2.7
		h24.5v4.1h-24.5C304.9,859.7,299.1,857.3,294.4,852.5L294.4,852.5z"/>
	<path d="M397.5,814.8v-4.1h49v4.1h-22.4v44.9h-4.2v-44.9H397.5z"/>
	<path d="M469,852.5c-4.8-4.8-7.2-10.6-7.2-17.3s2.4-12.6,7.2-17.3c4.8-4.8,10.6-7.2,17.4-7.2h24.5v4.1h-24.5
		c-5.3,0-9.8,1.8-13.7,5.3c-3.9,3.5-6.1,7.9-6.6,13h44.8v4.2h-44.8c0.5,5.2,2.7,9.5,6.6,13c3.9,3.5,8.4,5.3,13.7,5.3h24.5v4.1h-24.5
		C479.6,859.7,473.8,857.3,469,852.5L469,852.5z"/>
	<path d="M542.6,852.5c-4.8-4.8-7.2-10.6-7.2-17.3s2.4-12.6,7.2-17.3c4.8-4.8,10.6-7.2,17.3-7.2h24.5v4.1h-24.5
		c-3.7,0-7.1,0.9-10.2,2.7c-3.2,1.8-5.6,4.3-7.5,7.5s-2.7,6.6-2.7,10.2s0.9,7.1,2.7,10.2s4.3,5.6,7.5,7.5s6.6,2.7,10.2,2.7h24.5v4.1
		h-24.5C553.1,859.7,547.4,857.3,542.6,852.5L542.6,852.5z"/>
	<path d="M653.9,833.1v-22.4h4.1v49h-4.1v-22.4h-40.8v22.4H609v-49h4.1v22.4H653.9z"/>
	<path d="M732.6,810.6h35.7v4.1h-35.7c-2.5,0-4.7,0.9-6.5,2.7s-2.7,4-2.7,6.5s0.9,4.7,2.7,6.5c1.8,1.8,4,2.7,6.5,2.7H755
		c3.7,0,6.8,1.3,9.4,3.9s3.9,5.7,3.9,9.4s-1.3,6.8-3.9,9.4s-5.7,3.9-9.4,3.9h-35.7v-4.1H755c2.5,0,4.7-0.9,6.5-2.7s2.7-4,2.7-6.5
		s-0.9-4.7-2.7-6.5c-1.8-1.8-4-2.7-6.5-2.7h-22.4c-3.7,0-6.8-1.3-9.4-3.9s-3.9-5.7-3.9-9.4s1.3-6.8,3.9-9.4S728.9,810.6,732.6,810.6
		z"/>
	<path d="M792.8,814.8v-4.1h49v4.1h-22.4v44.9h-4.2v-44.9H792.8z"/>
	<path d="M864.4,817.8c4.8-4.8,10.6-7.2,17.3-7.2s12.6,2.4,17.3,7.2s7.2,10.6,7.2,17.3s-2.4,12.6-7.2,17.3
		c-4.8,4.8-10.6,7.2-17.3,7.2s-12.6-2.4-17.3-7.2s-7.2-10.6-7.2-17.3S859.6,822.6,864.4,817.8z M871.5,852.8
		c3.2,1.8,6.6,2.7,10.2,2.7s7.1-0.9,10.2-2.7s5.6-4.3,7.5-7.5s2.7-6.6,2.7-10.2s-0.9-7.1-2.7-10.2s-4.3-5.6-7.5-7.5
		s-6.6-2.7-10.2-2.7s-7.1,0.9-10.2,2.7c-3.2,1.8-5.6,4.3-7.5,7.5s-2.7,6.6-2.7,10.2s0.9,7.1,2.7,10.2
		C865.8,848.5,868.3,851,871.5,852.8z M883.9,833c0.6,0.6,0.9,1.3,0.9,2.2s-0.3,1.6-0.9,2.2s-1.3,0.9-2.2,0.9s-1.6-0.3-2.2-0.9
		c-0.6-0.6-0.9-1.3-0.9-2.2s0.3-1.6,0.9-2.2s1.3-0.9,2.2-0.9S883.3,832.4,883.9,833z"/>
	<path d="M979.8,823.9c0,2.3-0.6,4.5-1.7,6.5c-1.1,2-2.6,3.6-4.5,4.8c1.9,1.2,3.4,2.8,4.5,4.8c1.1,2,1.7,4.1,1.7,6.5v13.3h-4.1
		v-13.3c0-2.5-0.9-4.7-2.7-6.5c-1.8-1.8-4-2.7-6.5-2.7h-31.6v22.4h-4.1v-49h35.7c3.7,0,6.8,1.3,9.4,3.9
		C978.5,817.1,979.8,820.3,979.8,823.9L979.8,823.9z M934.9,814.8v18.3h31.6c2.5,0,4.7-0.9,6.5-2.7c1.8-1.8,2.7-3.9,2.7-6.5
		s-0.9-4.7-2.7-6.5s-4-2.7-6.5-2.7L934.9,814.8L934.9,814.8z"/>
	<path d="M1011.5,852.5c-4.8-4.8-7.2-10.6-7.2-17.3s2.4-12.6,7.2-17.3c4.8-4.8,10.6-7.2,17.3-7.2h24.5v4.1h-24.5
		c-5.3,0-9.8,1.8-13.7,5.3c-3.9,3.5-6.1,7.9-6.6,13h44.8v4.2h-44.8c0.5,5.2,2.7,9.5,6.6,13c3.9,3.5,8.4,5.3,13.7,5.3h24.5v4.1h-24.5
		C1022,859.7,1016.3,857.3,1011.5,852.5L1011.5,852.5z"/>
</g>
</svg>
